<mxfile host="app.diagrams.net" modified="2023-08-24T17:07:45.100Z" agent="Mozilla/5.0 (X11; Linux x86_64) AppleWebKit/537.36 (KHTML, like Gecko) Chrome/114.0.0.0 Safari/537.36" version="21.6.9" etag="OcuTQQVzjIkr871toS_6" type="github">
  <diagram name="PÃ¡gina-1" id="E6d2BmzQN2txyauMBU4W">
    <mxGraphModel>
      <root>
        <mxCell id="0" />
        <mxCell id="1" parent="0" />
      </root>
    </mxGraphModel>
  </diagram>
</mxfile>
